<svg width="20" height="20" viewBox="0 0 20 20" fill="none" xmlns="http://www.w3.org/2000/svg">
<path d="M15.3999 8.79995C15.3999 7.36778 14.831 5.99427 13.8183 4.98157C12.8056 3.96888 11.4321 3.39995 9.9999 3.39995C8.56773 3.39995 7.19422 3.96888 6.18153 4.98157C5.16883 5.99427 4.5999 7.36778 4.5999 8.79995C4.5999 11.0152 6.3723 13.9024 9.9999 17.3608C13.6275 13.9024 15.3999 11.0152 15.3999 8.79995ZM9.9999 19C5.5995 15.0003 3.3999 11.5996 3.3999 8.79995C3.3999 7.04952 4.09526 5.37079 5.333 4.13305C6.57074 2.89531 8.24947 2.19995 9.9999 2.19995C11.7503 2.19995 13.4291 2.89531 14.6668 4.13305C15.9045 5.37079 16.5999 7.04952 16.5999 8.79995C16.5999 11.5996 14.4003 15.0003 9.9999 19Z" fill="#6AC173"/>
<path d="M10 10.6C10.4774 10.6 10.9352 10.4104 11.2728 10.0728C11.6104 9.73528 11.8 9.27744 11.8 8.80005C11.8 8.32266 11.6104 7.86482 11.2728 7.52726C10.9352 7.18969 10.4774 7.00005 10 7.00005C9.52261 7.00005 9.06477 7.18969 8.72721 7.52726C8.38964 7.86482 8.2 8.32266 8.2 8.80005C8.2 9.27744 8.38964 9.73528 8.72721 10.0728C9.06477 10.4104 9.52261 10.6 10 10.6ZM10 11.8C9.20435 11.8 8.44129 11.484 7.87868 10.9214C7.31607 10.3588 7 9.5957 7 8.80005C7 8.0044 7.31607 7.24134 7.87868 6.67873C8.44129 6.11612 9.20435 5.80005 10 5.80005C10.7956 5.80005 11.5587 6.11612 12.1213 6.67873C12.6839 7.24134 13 8.0044 13 8.80005C13 9.5957 12.6839 10.3588 12.1213 10.9214C11.5587 11.484 10.7956 11.8 10 11.8Z" fill="#6AC173"/>
</svg>
