<svg width="1025" height="1024" viewBox="0 0 1025 1024" fill="none" xmlns="http://www.w3.org/2000/svg">
<rect width="1024" height="1024" transform="translate(0.5)" fill="white"/>
<path fill-rule="evenodd" clip-rule="evenodd" d="M175.538 366.233C175.538 367.5 176.598 368.536 177.894 368.536C179.189 368.536 180.25 367.5 180.25 366.233C180.25 364.967 179.189 363.931 177.894 363.931C176.598 363.931 175.538 364.967 175.538 366.233ZM137.934 370.673C135.373 375.348 136.883 382.353 140.45 382.353C141.607 382.353 142.554 383.255 142.554 384.356C142.554 385.459 137.732 387.679 131.839 389.291C123.287 391.633 120.022 391.646 115.663 389.367C110.923 386.887 108.895 387.317 100.305 392.618C91.1706 398.253 90.5298 399.294 91.9999 406.082C92.8763 410.128 96.3938 415.733 99.8147 418.538C107.161 424.557 104.477 425.091 90.723 420.348C77.3788 415.747 77.294 415.77 75.9699 424.378C75.1878 429.453 76.6202 435.357 80.4156 442.724C87.493 456.459 87.5448 460.554 80.5594 454.138C77.5602 451.384 74.3797 449.132 73.4915 449.132C70.9282 449.132 71.6161 482.266 74.448 495.173C78.7806 514.915 96.9051 533.783 116.405 538.849C130.332 542.467 173.38 545.573 230.314 547.063C280.922 548.39 290.061 547.531 281.351 542.269C279.942 541.419 279.358 538.598 280.053 536.003C280.746 533.41 280.187 529.231 278.811 526.716C276.576 522.633 276.905 522.302 281.879 523.603C284.939 524.404 288.773 525.074 290.391 525.09C292.012 525.109 293.336 526.949 293.336 529.182C293.336 531.414 295.723 534.265 298.637 535.515C301.551 536.765 304.984 540.118 306.263 542.969C309.145 549.389 313.729 549.668 315.718 543.545C316.625 540.751 319.282 538.939 322.472 538.939C325.365 538.939 328.739 538.03 329.971 536.915C331.201 535.803 335.972 534.242 340.573 533.445C348.85 532.01 348.979 532.112 353.159 543.473C358.629 558.347 356.584 570.604 346.501 583.377C340.597 590.854 337.435 592.955 332.591 592.621C328.873 592.363 326.32 593.371 326.32 595.096C326.32 597.813 316.804 608.021 314.271 608.021C313.644 608.021 313.555 604.454 314.078 600.093C314.825 593.832 313.696 590.868 308.709 585.993C303.792 581.188 302.739 578.484 303.947 573.773C305.914 566.114 305.785 565.764 300.232 563.756C296.279 562.326 295.699 563.028 296.142 568.707C296.427 572.347 295.256 576.976 293.541 578.995C290.888 582.12 291.256 583.377 296.003 587.46C299.073 590.097 300.449 591.711 299.063 591.048C297.678 590.385 268.575 589.233 234.387 588.49C200.202 587.746 172.039 586.912 171.801 586.64C171.566 586.369 168.67 582.217 165.367 577.416L159.362 568.686L127.424 568.205C97.2678 567.751 95.5645 567.961 96.8768 571.997C98.017 575.507 97.5388 575.873 94.1981 574.047C91.3803 572.506 88.0019 572.859 83.2145 575.191C76.46 578.484 76.3987 578.673 80.5664 583.292C84.7318 587.907 84.7059 587.99 79.5322 586.723C74.9098 585.59 74.1959 586.355 73.9603 592.694C73.4962 605.148 74.3325 608.802 80.5452 621.483C86.1077 632.833 87.1207 633.715 93.5383 632.794C99.4377 631.949 100.319 632.46 99.3293 636.161C98.5306 639.141 99.8665 641.282 103.539 642.919C106.496 644.237 110.664 648.895 112.798 653.273C116.693 661.252 122.729 661.949 120.189 654.127C118.931 650.249 119.456 650.175 127.749 653.068C134.075 655.274 150.536 656.206 184.422 656.278L232.182 656.379L234.946 650.452C237.071 645.892 237.054 643.502 234.875 640.089C231.626 635.005 233.763 634.427 239.646 638.795C242.106 640.619 243.484 644.412 243.18 648.508L242.683 655.228L286.268 655.555C310.24 655.737 331.644 654.956 333.833 653.823C336.349 652.52 338.387 652.669 339.372 654.226C340.229 655.582 342.679 656.015 344.816 655.188C346.953 654.359 357.524 651.163 368.308 648.085C391.205 641.547 403.218 635.924 410.43 628.366C424.323 613.808 431.973 579.834 427.624 551.989C423.472 525.408 413.047 511.408 389.935 501.37C377.065 495.781 313.807 491.003 308.6 495.226C306.475 496.951 305.069 496.974 304.008 495.3C302.06 492.219 284.666 492.131 282.729 495.194C281.759 496.73 279.749 496.707 276.726 495.125C273.303 493.336 270.665 493.718 266.047 496.675L259.917 500.603L265.399 504.644C271.908 509.446 269.981 512.909 263.13 508.725C259.245 506.355 257.638 506.429 254.314 509.123C250.636 512.108 250.403 511.942 251.88 507.398C253.127 503.558 252.239 501.731 248.097 499.636C245.119 498.13 240.862 495.346 238.638 493.451C235.523 490.798 228.917 490.1 209.918 490.418C171.749 491.06 159.081 485.672 159.02 468.768C159.006 464.934 157.413 456.704 155.481 450.479C151.102 436.366 152.129 434.74 157.67 447.018C161.788 456.142 161.972 456.25 166.59 452.158C170.569 448.635 176.424 447.863 204.05 447.23C234.715 446.53 236.793 446.196 236.793 441.977C236.793 436.776 241.18 434.57 248.99 435.845C254.408 436.727 254.397 436.769 247.984 439.85C244.419 441.563 241.505 443.834 241.505 444.897C241.505 445.959 256.083 446.846 273.899 446.864C312.829 446.905 333.983 450.931 340.988 459.635C345.469 465.203 345.928 465.293 351.514 461.717C354.728 459.658 357.863 458.472 358.485 459.08C359.833 460.397 349.823 469.857 347.078 469.857C346.027 469.857 345.167 470.893 345.167 472.16C345.167 473.597 359.023 474.462 382.022 474.462H418.878L417.293 453.924C414.345 415.763 406.495 400.903 382.559 388.169C371.25 382.155 367.21 381.411 337.044 379.806C309.637 378.346 210.215 376.805 206.165 377.777C205.517 377.934 198.362 378.447 190.262 378.921C179.974 379.52 175.514 378.954 175.462 377.036C175.422 375.527 173.771 376.365 171.792 378.898C168.46 383.168 168.029 383.216 165.904 379.552C163.76 375.854 163.122 375.891 156.028 380.119C145.754 386.242 144.17 385.827 148.263 378.09C150.878 373.146 151.069 370.871 149.031 368.879C145.021 364.96 140.677 365.66 137.934 370.673ZM872.903 373.142C872.903 374.408 874.027 375.444 875.398 375.444C876.769 375.444 877.238 374.408 876.437 373.142C875.636 371.875 874.515 370.839 873.942 370.839C873.37 370.839 872.903 371.875 872.903 373.142ZM487.065 376.722C485.326 379.757 480.428 380.218 456.307 379.617C440.527 379.221 427.619 379.251 427.621 379.684C427.626 380.372 435.615 404.94 469.211 507.583C475.021 525.335 476.682 533.362 474.903 535.101C470.78 539.13 472.034 546.188 477.101 547.482C479.693 548.146 481.813 549.981 481.813 551.563C481.813 553.142 483.934 557.071 486.525 560.292C489.117 563.512 491.237 567.488 491.237 569.128C491.237 570.768 494.67 575.571 498.866 579.804C505.114 586.104 505.872 587.875 503.055 589.576C500.18 591.313 500.355 591.932 504.119 593.344C506.878 594.378 508.982 593.982 509.55 592.317C510.676 589.019 517.153 588.667 517.153 591.902C517.153 593.169 516.092 594.205 514.797 594.205C509.392 594.205 512.966 598.564 518.92 599.234C525.391 599.962 525.399 599.98 525.333 618.398C525.271 636.152 521.268 651.773 516.783 651.773C515.6 651.773 515.84 649.565 517.318 646.866C520.856 640.403 521.539 603.018 518.14 601.857C516.535 601.311 515.989 603.619 516.663 608.109L517.732 615.229L508.834 611.595C503.94 609.596 499.452 608.434 498.861 609.012C498.27 609.592 497.414 614.663 496.962 620.284C496.324 628.189 497.183 631.427 500.755 634.586C503.295 636.833 505.373 640.914 505.373 643.656C505.373 646.397 507.757 650.641 510.674 653.086C515.567 657.187 518.788 657.436 552.492 656.31C572.577 655.64 591 656.006 593.432 657.125C596.346 658.463 598.448 658.219 599.593 656.411C600.547 654.901 604.75 654.014 608.932 654.442L616.537 655.223L636.449 601.468C652.305 558.664 655.792 547.042 653.565 544.422C652.029 542.612 651.511 540.408 652.413 539.526C653.316 538.644 654.939 539.317 656.018 541.025C657.309 543.068 661.877 532.607 669.376 510.447C675.643 491.922 681.361 476.765 682.082 476.765C683.632 476.765 687.128 485.092 696.107 510.155C708.499 544.749 710.323 548.15 716.489 548.15C719.587 548.15 722.122 549.306 722.122 550.722C722.122 552.182 720.03 552.758 717.275 552.053C714.246 551.279 712.766 551.802 713.327 553.449C713.822 554.897 716.797 556.677 719.94 557.403C724.781 558.522 725.024 558.962 721.533 560.274C715.859 562.404 716.34 566.572 722.261 566.572C724.946 566.572 726.452 567.617 725.632 568.912C724.817 570.199 723.165 570.657 721.959 569.927C720.753 569.199 719.766 569.736 719.766 571.122C719.766 573.835 742.687 635.661 749.095 650.238C752.945 658.993 753.027 659.034 758.919 655.26C775.475 644.658 788.089 644.285 788.089 654.401C788.089 660.137 791.872 661.638 798.052 658.359C801.336 656.616 810.685 655.741 822.25 656.091C848.729 656.895 848.986 656.614 864.686 609.645C871.798 588.372 877.615 569.411 877.615 567.509C877.615 565.605 874.765 561.651 871.28 558.722L864.947 553.398L875.243 543.823C886.469 533.385 886.167 531.854 872.003 527.425L862.857 524.565L870.236 518.919C874.296 515.815 877.615 511.477 877.615 509.277C877.615 507.078 879.019 503.403 880.732 501.11C883.435 497.499 884.521 497.352 888.872 500.007C895.261 503.907 898.378 501.015 894.435 494.842C891.803 490.727 892.062 489.651 896.402 486.681C900.355 483.973 900.824 482.58 898.642 480.012C895.561 476.383 897.509 473.037 908.577 462.949C914.771 457.305 924.996 433.731 932.721 407.287C935.794 396.779 938.147 393.256 944.772 389.254C954.234 383.539 956.208 376.372 947.705 378.599C944.789 379.361 927.87 380.002 910.104 380.018C878.289 380.05 877.721 380.14 872.072 386.095C865.506 393.017 861.123 391.741 861.123 382.908C861.123 375.143 857.622 378.516 854.529 389.261C853.252 393.694 843.701 424.781 833.299 458.343C822.9 491.906 810.986 531.282 806.826 545.847C802.667 560.412 798.45 573.821 797.454 575.645C796.259 577.837 793.562 572.518 789.512 559.984C786.138 549.546 783.377 540.54 783.377 539.971C783.377 539.404 786.769 538.939 790.916 538.939C800.033 538.939 797.128 535.038 787.191 533.935C780.851 533.233 779.786 531.513 771.008 507.852C765.839 493.92 760.041 480.772 758.123 478.633C756.203 476.493 754.634 470.928 754.634 466.267C754.634 459.877 753.534 457.51 750.158 456.648C746.897 455.815 745.681 453.434 745.681 447.886C745.681 443.698 741.971 429.605 737.435 416.569C732.9 403.533 729.19 392.169 729.19 391.315C729.19 390.461 731.84 389.109 735.079 388.314C746.525 385.507 741.386 382.081 728.021 383.608C717.419 384.817 714.813 384.421 713.633 381.415C712.472 378.454 708.302 377.747 691.998 377.747C680.89 377.747 668.184 376.469 663.762 374.906C656.009 372.165 655.443 372.363 647.85 380.462C633.464 395.803 632.984 401.769 641.797 455.736C646.064 481.868 650.1 505.319 650.764 507.852C651.591 511.007 651.198 511.732 649.516 510.155C648.163 508.888 643.812 486.704 639.844 460.855C635.877 435.007 632.204 413.44 631.681 412.928C631.158 412.417 624.644 429.939 617.208 451.865C603.209 493.142 571.99 579.801 569.966 583C568.586 585.185 557.204 580.474 557.204 577.715C557.204 574.899 560.505 575.35 564.105 578.662C569.457 583.582 565.481 561.702 554.794 527.425C549.462 510.327 537.836 471.987 528.958 442.224C508.412 373.347 508.914 374.604 502.595 376.22C499.815 376.93 495.65 376.52 493.338 375.311C490.255 373.699 488.58 374.074 487.065 376.722ZM101.325 380.05C102.126 381.316 103.841 382.353 105.137 382.353C106.433 382.353 106.838 381.316 106.037 380.05C105.236 378.783 103.521 377.747 102.225 377.747C100.929 377.747 100.524 378.783 101.325 380.05ZM256.819 386.958C257.62 388.225 258.741 389.261 259.313 389.261C259.886 389.261 260.352 388.225 260.352 386.958C260.352 385.692 259.229 384.655 257.857 384.655C256.486 384.655 256.018 385.692 256.819 386.958ZM163.216 419.196C165.996 421.729 169.012 423.802 169.914 423.802C170.816 423.802 169.636 421.729 167.292 419.196C164.948 416.663 161.932 414.591 160.591 414.591C159.253 414.591 160.434 416.663 163.216 419.196ZM155.528 430.685C154.704 431.988 155.649 432.375 157.745 431.59C161.826 430.059 162.573 428.407 159.185 428.407C157.965 428.407 156.32 429.432 155.528 430.685ZM210.877 433.013C208.754 434.353 208.462 435.258 210.149 435.281C211.692 435.3 213.61 434.279 214.411 433.013C216.218 430.153 215.403 430.153 210.877 433.013ZM140.745 436.35C133.119 440.469 131.898 442.106 137.531 440.667C140.21 439.983 143.624 437.98 145.122 436.218C148.298 432.476 147.895 432.488 140.745 436.35ZM363.574 466.824C365.273 467.49 367.306 467.407 368.088 466.642C368.871 465.878 367.481 465.334 364.997 465.433C362.253 465.544 361.694 466.09 363.574 466.824ZM511.279 529.728C514.177 539.103 521.603 556.401 521.66 553.907C521.737 550.395 513.381 527.564 511.317 525.652C510.318 524.729 510.299 526.562 511.279 529.728ZM524.221 527.425C524.221 528.692 525.281 529.728 526.576 529.728C527.872 529.728 528.933 528.692 528.933 527.425C528.933 526.159 527.872 525.123 526.576 525.123C525.281 525.123 524.221 526.159 524.221 527.425ZM481.512 533.758C478.583 537.41 478.666 537.491 482.402 534.628C486.327 531.619 487.573 529.728 485.635 529.728C485.147 529.728 483.29 531.543 481.512 533.758ZM538.356 536.636C538.356 537.903 539.417 538.939 540.712 538.939C542.008 538.939 543.068 537.903 543.068 536.636C543.068 535.37 542.008 534.334 540.712 534.334C539.417 534.334 538.356 535.37 538.356 536.636ZM742.199 538.363C746.638 548.689 746.266 552.691 740.651 554.989C735.633 557.043 735.897 557.216 743.325 556.739C747.86 556.447 751.571 555.001 751.571 553.522C751.571 552.046 752.339 550.087 753.277 549.17C755.696 546.805 747.684 534.334 743.742 534.334C741.532 534.334 741.028 535.644 742.199 538.363ZM755.105 555.058C755.105 556.325 759.812 557.361 765.568 557.361C771.324 557.361 776.686 556.325 777.487 555.058C778.384 553.64 774.37 552.756 767.024 552.756C760.47 552.756 755.105 553.792 755.105 555.058ZM519.509 559.664C519.509 560.93 520.569 561.966 521.865 561.966C523.16 561.966 524.221 560.93 524.221 559.664C524.221 558.397 523.16 557.361 521.865 557.361C520.569 557.361 519.509 558.397 519.509 559.664ZM500.661 574.767C500.661 576.741 501.738 577.706 503.055 576.911C504.372 576.115 504.84 574.5 504.094 573.321C502.074 570.128 500.661 570.722 500.661 574.767ZM179.173 580.23C177.564 582.774 181.279 585.524 183.456 583.396C185.694 581.206 185.277 578.086 182.745 578.086C181.524 578.086 179.917 579.051 179.173 580.23ZM538.356 598.81C535.31 600.733 535.374 601.046 538.806 601.079C540.997 601.097 543.445 600.077 544.246 598.81C546.089 595.895 542.969 595.895 538.356 598.81ZM505.373 620.159C505.373 625.237 511.296 633.144 513.343 630.803C515.567 628.256 516.941 617.232 515.035 617.232C513.819 617.232 511.15 616.604 509.1 615.835C506.318 614.791 505.373 615.888 505.373 620.159ZM312.184 618.273C312.184 620.085 333.694 649.471 335.018 649.471C335.715 649.471 334.749 647.14 332.869 644.29C330.991 641.439 326.529 634.188 322.95 628.17C317.511 619.019 312.184 614.124 312.184 618.273ZM269.776 633.352C269.776 634.618 270.837 635.654 272.132 635.654C273.428 635.654 274.488 634.618 274.488 633.352C274.488 632.085 273.428 631.049 272.132 631.049C270.837 631.049 269.776 632.085 269.776 633.352ZM283.912 633.352C283.912 634.618 284.972 635.654 286.268 635.654C287.564 635.654 288.624 634.618 288.624 633.352C288.624 632.085 287.564 631.049 286.268 631.049C284.972 631.049 283.912 632.085 283.912 633.352Z" fill="#3CAF47"/>
</svg>
